<svg width="24" height="23" viewBox="0 0 24 23" fill="none" xmlns="http://www.w3.org/2000/svg">
<path d="M12 0.0976562C5.73755 0.0976562 0.675049 5.16016 0.675049 11.4227C0.675049 17.6852 5.73755 22.7852 12 22.7852C18.2626 22.7852 23.3625 17.6852 23.3625 11.4227C23.3625 5.16016 18.2626 0.0976562 12 0.0976562ZM12 21.0977C6.67505 21.0977 2.36255 16.7477 2.36255 11.4227C2.36255 6.09766 6.67505 1.78516 12 1.78516C17.325 1.78516 21.675 6.13516 21.675 11.4602C21.675 16.7477 17.325 21.0977 12 21.0977Z" fill="#D9D9D9"/>
<rect x="11.0002" y="8.42188" width="2" height="8" fill="#D9D9D9"/>
<circle cx="12.0002" cy="6.42188" r="1" fill="#D9D9D9"/>
</svg>
