<svg
    width="10"
    height="12"
    viewBox="0 0 10 12"
    fill="none"
    xmlns="http://www.w3.org/2000/svg"
    className="mr-1"
>
    <path
    d="M8.16876 1.64961H6.72501V1.33086C6.72501 0.768359 6.27501 0.318359 5.71251 0.318359H4.26876C3.70626 0.318359 3.25626 0.768359 3.25626 1.33086V1.64961H1.81251C1.26876 1.64961 0.818756 2.09961 0.818756 2.64336V3.20586C0.818756 3.61836 1.06251 3.95586 1.41876 4.10586L1.71876 10.5934C1.75626 11.2121 2.24376 11.6809 2.86251 11.6809H7.08126C7.70001 11.6809 8.20626 11.1934 8.22501 10.5934L8.56251 4.08711C8.91876 3.93711 9.16251 3.58086 9.16251 3.18711V2.62461C9.16251 2.09961 8.71251 1.64961 8.16876 1.64961ZM4.11876 1.33086C4.11876 1.23711 4.19376 1.16211 4.28751 1.16211H5.73126C5.82501 1.16211 5.90001 1.23711 5.90001 1.33086V1.64961H4.13751V1.33086H4.11876ZM1.68126 2.64336C1.68126 2.56836 1.73751 2.49336 1.83126 2.49336H8.16876C8.24376 2.49336 8.31876 2.54961 8.31876 2.64336V3.20586C8.31876 3.28086 8.26251 3.35586 8.16876 3.35586H1.83126C1.75626 3.35586 1.68126 3.29961 1.68126 3.20586V2.64336ZM7.10001 10.8371H2.90001C2.73126 10.8371 2.60001 10.7059 2.60001 10.5559L2.30001 4.19961H7.71876L7.41876 10.5559C7.40001 10.7059 7.26876 10.8371 7.10001 10.8371Z"
    fill="#1C2434"
    />
    <path
    d="M5.00001 6.07422C4.77501 6.07422 4.56876 6.26172 4.56876 6.50547V8.88672C4.56876 9.11172 4.75626 9.31797 5.00001 9.31797C5.22501 9.31797 5.43126 9.13047 5.43126 8.88672V6.50547C5.43126 6.26172 5.22501 6.07422 5.00001 6.07422Z"
    fill="#1C2434"
    />
    <path
    d="M6.5 6.44869C6.25625 6.42994 6.06875 6.59869 6.05 6.84244L5.9375 8.49244C5.91875 8.71744 6.0875 8.92369 6.33125 8.94244C6.35 8.94244 6.35 8.94244 6.36875 8.94244C6.59375 8.94244 6.78125 8.77369 6.78125 8.54869L6.89375 6.89869C6.89375 6.65494 6.725 6.46744 6.5 6.44869Z"
    fill="#1C2434"
    />
    <path
    d="M3.48126 6.44869C3.25626 6.46744 3.06876 6.67369 3.08751 6.89869L3.21876 8.54869C3.23751 8.77369 3.42501 8.94244 3.63126 8.94244C3.65001 8.94244 3.65001 8.94244 3.66876 8.94244C3.89376 8.92369 4.08126 8.71744 4.06251 8.49244L3.93126 6.84244C3.93126 6.59869 3.72501 6.42994 3.48126 6.44869Z"
    fill="#1C2434"
    />
</svg>