<svg width="26" height="26" viewBox="0 0 26 26" fill="none" xmlns="http://www.w3.org/2000/svg">
<path d="M19.6219 10.7252V4.95645C19.6219 4.14395 19.1344 3.37207 18.4031 3.00645L13.8937 0.893945C13.325 0.60957 12.675 0.60957 12.1062 0.893945L7.59686 3.00645C6.86561 3.37207 6.37811 4.10332 6.37811 4.95645V10.7252C6.37811 11.4971 6.78436 12.1877 7.43436 12.5533L11.9437 15.1533C12.2687 15.3564 12.6344 15.4377 13 15.4377C13.3656 15.4377 13.7312 15.3564 14.0562 15.1533L18.5656 12.5533C19.2156 12.1877 19.6219 11.4971 19.6219 10.7252ZM12.8781 2.55957C12.9187 2.55957 12.9594 2.51895 13 2.51895C13.0406 2.51895 13.0812 2.51895 13.1219 2.55957L16.575 4.14395L13 5.76895L9.42499 4.14395L12.8781 2.55957ZM8.32811 10.9689C8.24686 10.9283 8.16561 10.8064 8.16561 10.7252V5.60645L12.0656 7.39395V13.1221L8.32811 10.9689ZM17.6719 10.9689L13.9344 13.1221V7.39395L17.8344 5.60645V10.7252C17.7937 10.8064 17.7531 10.9283 17.6719 10.9689Z" fill="#00B9F0"/>
<path d="M18.7281 16.0066C18.2406 15.9253 17.7531 16.2503 17.6719 16.7378C17.5906 17.2253 17.9156 17.7128 18.4031 17.7941C21.2875 18.3628 22.2219 19.216 22.2219 19.4597C22.2219 19.866 20.475 21.0035 16.2906 21.4097C15.8031 21.4503 15.4375 21.8972 15.4781 22.4253C15.5187 22.9128 15.925 23.2378 16.3719 23.2378C16.4125 23.2378 16.4125 23.2378 16.4531 23.2378C18.2406 23.0753 24.0094 22.3035 24.0094 19.4597C24.0094 17.916 22.1406 16.6566 18.7281 16.0066Z" fill="#00B9F0"/>
<path d="M11.1719 19.7844C10.8062 19.4594 10.1969 19.5 9.87185 19.8656C9.54685 20.2313 9.58748 20.8406 9.9531 21.1656L10.3187 21.45C5.84998 21.125 3.81873 19.9063 3.81873 19.4594C3.81873 19.175 4.9156 18.2406 8.24685 17.7125C8.73435 17.6313 9.09998 17.1844 9.01873 16.6563C8.93748 16.1688 8.4906 15.8031 7.96248 15.8844C5.7281 16.25 1.9906 17.1844 1.9906 19.4594C1.9906 21.8969 6.33748 23.0344 10.3187 23.2781L9.87185 23.725C9.50623 24.0906 9.50623 24.6594 9.87185 25.025C10.0344 25.1875 10.2781 25.3094 10.5219 25.3094C10.7656 25.3094 11.0094 25.2281 11.1719 25.025L13.2844 22.9125C13.4469 22.75 13.5687 22.5063 13.5687 22.2219C13.5687 21.9781 13.4468 21.7344 13.2437 21.5719L11.1719 19.7844Z" fill="#00B9F0"/>
</svg>
