<svg width="25" height="21" viewBox="0 0 25 21" fill="none" xmlns="http://www.w3.org/2000/svg">
<path d="M12.2234 17.2559C4.89521 17.2559 1.26815 11.3496 1.1201 11.0996C1.00907 10.9121 1.00907 10.6621 1.1201 10.4746C1.26815 10.2246 4.89521 4.34961 12.2234 4.34961C19.5515 4.34961 23.1786 10.2246 23.3266 10.4746C23.4377 10.6621 23.4377 10.9121 23.3266 11.0996C23.1786 11.3496 19.5515 17.2559 12.2234 17.2559ZM2.8226 10.7871C3.63684 11.9434 6.81978 15.8496 12.2234 15.8496C17.6269 15.8496 20.8099 11.9434 21.6241 10.7871C20.8099 9.63086 17.6269 5.72461 12.2234 5.72461C6.81978 5.72461 3.63684 9.63086 2.8226 10.7871Z" fill="#999999"/>
<path d="M12.2234 13.4434C10.4839 13.4434 9.07744 12.2559 9.07744 10.7871C9.07744 9.31836 10.4839 8.13086 12.2234 8.13086C13.9629 8.13086 15.3693 9.31836 15.3693 10.7871C15.3693 12.2559 13.9629 13.4434 12.2234 13.4434ZM12.2234 9.53711C11.4091 9.53711 10.7429 10.0996 10.7429 10.7871C10.7429 11.4746 11.4091 12.0371 12.2234 12.0371C13.0376 12.0371 13.7038 11.4746 13.7038 10.7871C13.7038 10.0996 13.0376 9.53711 12.2234 9.53711Z" fill="#999999"/>
</svg>