<svg width="14" height="16" viewBox="0 0 14 16" fill="none" xmlns="http://www.w3.org/2000/svg">
<path d="M13.2248 3.38945H2.0998L4.1498 1.31445C4.3748 1.08945 4.3748 0.739453 4.1498 0.514453C3.9248 0.289453 3.5748 0.289453 3.3498 0.514453L0.374805 3.53945C0.149805 3.76445 0.149805 4.11445 0.374805 4.33945L3.3498 7.36445C3.4498 7.46445 3.5998 7.53945 3.7498 7.53945C3.8998 7.53945 4.0248 7.48945 4.1498 7.38945C4.3748 7.16445 4.3748 6.81445 4.1498 6.58945L2.1248 4.53945H12.6748V6.03945C12.6748 6.33945 12.9248 6.61445 13.2498 6.61445C13.5748 6.61445 13.8248 6.36445 13.8248 6.03945V3.96445C13.7998 3.63945 13.5498 3.38945 13.2248 3.38945Z" fill="#666666"/>
<path d="M10.6498 8.46367C10.4248 8.23867 10.0748 8.23867 9.8498 8.46367C9.6248 8.68867 9.6248 9.03867 9.8498 9.26367L11.8748 11.3137H1.3248V9.81367C1.3248 9.51367 1.0748 9.23867 0.749805 9.23867C0.424805 9.23867 0.174805 9.48867 0.174805 9.81367V11.8887C0.174805 12.1887 0.424805 12.4637 0.749805 12.4637H11.8748L9.8248 14.5387C9.5998 14.7637 9.5998 15.1137 9.8248 15.3387C9.9248 15.4387 10.0748 15.4887 10.2248 15.4887C10.3748 15.4887 10.5248 15.4387 10.6248 15.3137L13.5998 12.2887C13.8248 12.0637 13.8248 11.7137 13.5998 11.4887L10.6498 8.46367Z" fill="#666666"/>
</svg>
