<svg width="16" height="17" viewBox="0 0 16 17" fill="none" xmlns="http://www.w3.org/2000/svg">
<g clip-path="url(#clip0_361_8588)">
<path d="M13.8001 10.0383C13.8001 10.0133 13.8001 10.0133 13.8001 10.0383C13.7751 10.0133 13.7751 10.0133 13.7751 10.0133C13.1251 9.43828 12.2501 9.06328 11.3001 9.06328C11.1751 9.06328 11.0501 9.06328 10.9501 9.08828C10.2251 8.26328 9.3501 7.66328 8.3751 7.36328C9.3501 6.81328 10.0251 5.76328 10.0251 4.56328C10.0251 2.78828 8.5751 1.36328 6.8251 1.36328C5.0501 1.36328 3.6251 2.81328 3.6251 4.56328C3.6251 5.76328 4.3001 6.81328 5.2751 7.36328C4.3001 7.66328 3.4001 8.26328 2.6751 9.11328C1.6251 10.3633 1.0251 12.1133 0.975098 14.0133C0.975098 14.2383 1.1001 14.4383 1.2751 14.5383C1.9501 14.8633 4.3001 15.9383 6.8251 15.9383C7.5501 15.9383 8.3001 15.8633 9.0501 15.7133C9.6751 16.1883 10.4501 16.4883 11.3001 16.4883C13.3501 16.4883 15.0001 14.8133 15.0001 12.7883C15.0251 11.6883 14.5501 10.7133 13.8001 10.0383ZM12.6001 10.5383L9.3001 14.3883C8.9501 13.9383 8.7251 13.3883 8.7251 12.7883C8.7251 11.3633 9.8751 10.2133 11.3001 10.2133C11.7751 10.1883 12.2251 10.3133 12.6001 10.5383ZM6.8251 2.48828C7.9751 2.48828 8.9001 3.41328 8.9001 4.56328C8.9001 5.71328 7.9751 6.63828 6.8251 6.63828C5.6751 6.63828 4.7501 5.71328 4.7501 4.56328C4.7501 3.41328 5.6751 2.48828 6.8251 2.48828ZM2.1251 13.6883C2.2251 12.1883 2.7251 10.8383 3.5501 9.83828C4.4251 8.81328 5.6001 8.23828 6.8501 8.23828C7.9251 8.23828 8.9251 8.66328 9.7501 9.41328C8.5001 10.0133 7.6251 11.2883 7.6251 12.7633C7.6251 13.4883 7.8251 14.1383 8.2001 14.7133C7.7501 14.7633 7.3001 14.8133 6.8751 14.8133C4.8751 14.8133 2.9751 14.0883 2.1251 13.6883ZM11.3001 15.3633C10.9001 15.3633 10.5001 15.2633 10.1751 15.0883L13.4251 11.2883C13.7251 11.7133 13.9001 12.2133 13.9001 12.7633C13.9001 14.1883 12.7251 15.3633 11.3001 15.3633Z" fill="#666666"/>
</g>
<defs>
<clipPath id="clip0_361_8588">
<rect width="16" height="16" fill="white" transform="translate(0 0.914062)"/>
</clipPath>
</defs>
</svg>
