<svg width="12" height="16" viewBox="0 0 12 16" fill="none" xmlns="http://www.w3.org/2000/svg">
<path d="M10.2248 2.11484H8.2998V1.68984C8.2998 0.939844 7.6998 0.339844 6.9498 0.339844H5.02481C4.27481 0.339844 3.6748 0.939844 3.6748 1.68984V2.11484H1.7498C1.0248 2.11484 0.424805 2.71484 0.424805 3.43984V4.18984C0.424805 4.73984 0.749805 5.18984 1.2248 5.38984L1.6248 13.6648C1.6748 14.6898 2.52481 15.4898 3.5498 15.4898H8.3998C9.4248 15.4898 10.2748 14.6898 10.3248 13.6648L10.7498 5.36484C11.2248 5.16484 11.5498 4.68984 11.5498 4.16484V3.41484C11.5498 2.71484 10.9498 2.11484 10.2248 2.11484ZM4.8248 1.68984C4.8248 1.56484 4.9248 1.46484 5.0498 1.46484H6.9748C7.0998 1.46484 7.1998 1.56484 7.1998 1.68984V2.11484H4.8498V1.68984H4.8248ZM1.5748 3.43984C1.5748 3.33984 1.6498 3.23984 1.7748 3.23984H10.2248C10.3248 3.23984 10.4248 3.31484 10.4248 3.43984V4.18984C10.4248 4.28984 10.3498 4.38984 10.2248 4.38984H1.7748C1.6748 4.38984 1.5748 4.31484 1.5748 4.18984V3.43984ZM8.4248 14.3648H3.5748C3.1498 14.3648 2.7998 14.0398 2.7748 13.5898L2.3998 5.48984H9.6248L9.2498 13.5898C9.1998 14.0148 8.8498 14.3648 8.4248 14.3648Z" fill="#666666"/>
<path d="M5.9998 8.01562C5.6998 8.01562 5.4248 8.26562 5.4248 8.59062V11.7656C5.4248 12.0656 5.6748 12.3406 5.9998 12.3406C6.2998 12.3406 6.5748 12.0906 6.5748 11.7656V8.59062C6.5748 8.26562 6.2998 8.01562 5.9998 8.01562Z" fill="#666666"/>
<path d="M7.99994 8.51557C7.67494 8.49057 7.42494 8.71557 7.39994 9.04057L7.24994 11.2406C7.22494 11.5406 7.44994 11.8156 7.77494 11.8406C7.79994 11.8406 7.79994 11.8406 7.82494 11.8406C8.12494 11.8406 8.37494 11.6156 8.37494 11.3156L8.52494 9.11557C8.52494 8.79057 8.29994 8.54057 7.99994 8.51557Z" fill="#666666"/>
<path d="M3.97497 8.51557C3.67497 8.54057 3.42497 8.81557 3.44997 9.11557L3.62497 11.3156C3.64997 11.6156 3.89997 11.8406 4.17497 11.8406C4.19997 11.8406 4.19997 11.8406 4.22497 11.8406C4.52497 11.8156 4.77497 11.5406 4.74997 11.2406L4.57497 9.04057C4.57497 8.71557 4.29997 8.49057 3.97497 8.51557Z" fill="#666666"/>
</svg>
