<svg width="44" height="44" viewBox="0 0 44 44" fill="none" xmlns="http://www.w3.org/2000/svg">
<circle cx="22" cy="22" r="21.5" fill="white" stroke="#DADADA"/>
<g clip-path="url(#clip0_3_35724)">
<path fill-rule="evenodd" clip-rule="evenodd" d="M23.0965 22.8203L31.9035 22.8223C32.5139 22.8224 32.9975 22.3389 32.9973 21.7284C32.9972 21.1181 32.5137 20.6346 31.9034 20.6345L23.096 20.6325L23.0941 11.8252C23.094 11.2149 22.6105 10.7314 22.0002 10.7312C21.3897 10.7311 20.9061 11.2146 20.9063 11.8251L20.9082 20.632L12.1013 20.6301C11.4908 20.63 11.0073 21.1135 11.0074 21.724C11.0075 21.9801 11.0996 22.2833 11.3208 22.5045C11.5016 22.6853 11.7804 22.845 12.1237 22.8179L20.9087 22.8199L20.9107 31.6272C20.9107 31.8834 21.0029 32.1866 21.2241 32.4078C21.4054 32.5891 21.6856 32.7494 22.0306 32.7209C22.6287 32.7075 23.0986 32.2291 23.0985 31.6273L23.0965 22.8203Z" fill="#999999"/>
</g>
<defs>
<clipPath id="clip0_3_35724">
<rect width="18" height="18" fill="white" transform="translate(22 9) rotate(45)"/>
</clipPath>
</defs>
</svg>
