<svg width="26" height="26" viewBox="0 0 26 26" fill="none" xmlns="http://www.w3.org/2000/svg">
<g clip-path="url(#clip0_361_22167)">
<path d="M18.2 15.6406C16.8594 15.6406 15.7625 16.7375 15.7625 18.0781C15.7625 19.4188 16.8594 20.5156 18.2 20.5156C19.5406 20.5156 20.6375 19.4188 20.6375 18.0781C20.6375 16.7375 19.5406 15.6406 18.2 15.6406ZM18.2 18.7281C17.875 18.7281 17.5906 18.4437 17.5906 18.1187C17.5906 17.7937 17.875 17.5094 18.2 17.5094C18.525 17.5094 18.8094 17.7937 18.8094 18.1187C18.8094 18.4437 18.525 18.7281 18.2 18.7281Z" fill="#00B9F0"/>
<path d="M24.7406 19.0934L23.725 18.5652C23.725 18.4027 23.7656 18.2402 23.7656 18.0371C23.7656 17.8746 23.7656 17.6715 23.725 17.509L24.7406 16.9402C25.1875 16.6559 25.3906 16.1277 25.1875 15.5996C25.1875 15.559 25.1469 15.5184 25.1469 15.4777L23.8875 13.3652C23.6031 12.9184 23.075 12.7559 22.5875 12.9184C22.5469 12.9184 22.5062 12.959 22.4656 12.959L21.45 13.5277C21.2469 13.3652 21.0437 13.2027 20.8 13.0402V12.4309C20.8 11.6184 20.15 10.9684 19.3375 10.9684H17.0625C16.3719 10.9684 15.7625 11.4559 15.6 12.1465C14.5844 11.0902 13.4062 10.359 12.1469 9.91211C13.5687 9.05898 14.5437 7.47461 14.5437 5.68711C14.5437 2.96523 12.35 0.771484 9.62811 0.771484C6.90624 0.771484 4.71249 3.00586 4.71249 5.68711C4.71249 7.47461 5.68749 9.05898 7.10936 9.91211C5.64686 10.3996 4.34686 11.2934 3.29061 12.5527C1.66561 14.4621 0.771863 17.1027 0.690613 20.0277C0.690613 20.3934 0.893738 20.7184 1.17811 20.8809C2.19374 21.3684 5.76874 23.034 9.58749 23.034C10.5219 23.034 11.4562 22.9527 12.4312 22.7902C12.7156 23.1965 13.2437 23.359 13.6906 23.1559C13.7312 23.1559 13.7719 23.1152 13.8125 23.1152L14.8281 22.5465C15.0312 22.709 15.2344 22.8715 15.5187 23.034V23.7652C15.5187 24.5777 16.1687 25.2277 16.9812 25.2277H19.2156C20.0281 25.2277 20.6781 24.5777 20.6781 23.7652V22.9934C20.9219 22.8309 21.125 22.6684 21.3281 22.5059L22.2625 23.034C22.9125 23.3996 23.5219 23.1559 23.8062 22.709L25.0656 20.5965C25.2281 20.3527 25.2687 20.0684 25.1875 19.784C25.1875 19.459 24.9844 19.2152 24.7406 19.0934ZM9.62811 2.59961C11.3344 2.59961 12.7156 3.98086 12.7156 5.68711C12.7156 7.39336 11.3344 8.77461 9.62811 8.77461C7.92186 8.77461 6.54061 7.39336 6.54061 5.68711C6.54061 3.98086 7.92186 2.59961 9.62811 2.59961ZM2.55936 19.4996C2.72186 17.2652 3.45311 15.234 4.67186 13.7715C5.97186 12.2277 7.71874 11.3746 9.62811 11.3746C11.2125 11.3746 12.675 11.984 13.8937 13.0809C13.2844 12.7965 12.7156 13.0402 12.4312 13.4465L11.2125 15.559C11.05 15.8027 11.0094 16.0871 11.0906 16.3715C11.1719 16.6559 11.3344 16.8996 11.6187 17.0215L12.6344 17.5902C12.6344 17.7527 12.5937 17.9152 12.5937 18.1184C12.5937 18.2809 12.5937 18.4434 12.5937 18.6059L11.5375 19.1746C11.0906 19.459 10.8875 19.9871 11.0906 20.5152C11.0906 20.5559 11.1312 20.5965 11.1312 20.6371L11.4156 21.1246C10.8062 21.2059 10.1969 21.2465 9.58749 21.2465C6.70311 21.1652 3.89999 20.0684 2.55936 19.4996ZM21.8969 17.4684C21.9375 17.6309 21.9375 17.834 21.9375 18.0371C21.9375 18.2402 21.9375 18.4434 21.8969 18.6059C21.8156 19.134 22.0594 19.7027 22.5469 19.9465L23.1562 20.3121L22.7094 21.084L21.9781 20.6777C21.5312 20.434 20.9625 20.4746 20.5969 20.7996C20.475 20.8809 20.3937 20.9621 20.3125 21.0434C20.1094 21.2465 19.9469 21.3277 19.825 21.409C19.3375 21.6527 18.9719 22.1809 18.9719 22.7496V23.3996H17.4281V22.7902C17.4281 22.2215 17.1031 21.6934 16.575 21.4496C16.4125 21.3684 16.25 21.2465 16.0469 21.084C15.9656 21.0027 15.8437 20.9215 15.7625 20.8402C15.3562 20.5152 14.8281 20.4746 14.3812 20.7184L13.8937 21.0027C13.7719 20.8809 13.65 20.8402 13.4875 20.7996L13.2031 20.3527L13.8531 19.9871C14.3 19.7434 14.5844 19.2152 14.5031 18.6871C14.4625 18.484 14.4625 18.2809 14.4625 18.0777C14.4625 17.834 14.4625 17.6715 14.5031 17.509C14.5844 16.9402 14.3406 16.4121 13.8531 16.1684L13.2031 15.8027L13.65 15.0309L14.3812 15.4371C14.8281 15.6809 15.3969 15.6402 15.7625 15.3152C15.8437 15.234 15.9656 15.1527 16.0469 15.0715C16.25 14.8684 16.4125 14.7871 16.575 14.6652C17.1031 14.4215 17.4281 13.8934 17.4281 13.3246V12.7965H18.9719V13.284C18.9719 13.8527 19.2969 14.3809 19.825 14.6246C19.9875 14.7059 20.1094 14.8277 20.3125 14.9902C20.3937 15.0715 20.5156 15.1527 20.5969 15.234C21.0031 15.559 21.5312 15.5996 21.9781 15.3559L22.7094 14.9496L23.1562 15.7215L22.5062 16.0871C22.0594 16.3715 21.775 16.8996 21.8969 17.4684Z" fill="#00B9F0"/>
</g>
<defs>
<clipPath id="clip0_361_22167">
<rect width="26" height="26" fill="white"/>
</clipPath>
</defs>
</svg>
