<svg width="26" height="26" viewBox="0 0 26 26" fill="none" xmlns="http://www.w3.org/2000/svg">
<path d="M25.1063 9.83125C24.9438 9.5875 24.6594 9.46562 24.375 9.46562H22.7906V8.00313C22.7906 7.06875 22.0188 6.3375 21.125 6.3375H12.2688L10.8875 3.77813C10.6031 3.20938 10.0344 2.84375 9.42501 2.84375H3.16876C1.82814 2.84375 0.731262 3.94063 0.731262 5.28125V20.7188C0.731262 22.0594 1.82814 23.1562 3.16876 23.1562H19.825C20.5563 23.1562 21.1656 22.7094 21.4094 22.0188L25.2688 10.6844C25.35 10.4 25.3094 10.075 25.1063 9.83125ZM2.55939 5.28125C2.55939 4.95625 2.84376 4.67188 3.16876 4.67188H9.34376L10.9281 7.6375C11.0906 7.92187 11.4156 8.125 11.7406 8.125H20.9625V9.425H8.08439C7.71876 9.425 7.39376 9.66875 7.23126 9.99375L2.76251 21.125C2.64064 21.0031 2.55939 20.8406 2.55939 20.6781V5.28125ZM19.7031 21.3281H5.80939H4.63126L8.65314 11.2937H23.075L19.7031 21.3281Z" fill="#00B9F0"/>
</svg>
