<svg width="72" height="73" viewBox="0 0 72 73" fill="none" xmlns="http://www.w3.org/2000/svg">
<circle cx="36" cy="36.4219" r="36" fill="#FF3B30" fill-opacity="0.1"/>
<path fill-rule="evenodd" clip-rule="evenodd" d="M32.7396 22.3399C34.1842 19.7825 37.8159 19.7825 39.2605 22.3399L48.4992 38.7038C48.4992 38.7037 48.4992 38.7038 48.4992 38.7038C49.9154 41.2111 48.1708 44.4219 45.2388 44.4219H26.7613C23.8293 44.4219 22.0846 41.2114 23.5008 38.704C23.5007 38.704 23.5008 38.7039 23.5008 38.704L32.7396 22.3399ZM34.6411 23.4123C34.6411 23.4124 34.6412 23.4123 34.6411 23.4123L25.4025 39.776C24.7653 40.9041 25.5862 42.2401 26.7613 42.2401H45.2388C46.4139 42.2401 47.235 40.9043 46.5977 39.7762L37.359 23.4123C36.75 22.3342 35.2502 22.3344 34.6411 23.4123ZM36.0001 28.6035C36.603 28.6035 37.0918 29.0919 37.0918 29.6944V32.4217C37.0918 33.0242 36.603 33.5126 36.0001 33.5126C35.3971 33.5126 34.9083 33.0242 34.9083 32.4217V29.6944C34.9083 29.0919 35.3971 28.6035 36.0001 28.6035ZM34.9083 37.8763C34.9083 37.2738 35.3971 36.7854 36.0001 36.7854H36.0134C36.6163 36.7854 37.1051 37.2738 37.1051 37.8763C37.1051 38.4788 36.6163 38.9672 36.0134 38.9672H36.0001C35.3971 38.9672 34.9083 38.4788 34.9083 37.8763Z" fill="#FF3B30"/>
</svg>
