<svg width="48" height="48" viewBox="0 0 48 48" fill="none" xmlns="http://www.w3.org/2000/svg">
<circle cx="24" cy="24" r="24" fill="#DADADA"/>
<mask id="mask0_171_9126" style="mask-type:alpha" maskUnits="userSpaceOnUse" x="0" y="0" width="48" height="48">
<circle cx="24" cy="24" r="24" fill="#D9D9D9"/>
</mask>
<g mask="url(#mask0_171_9126)">
<path d="M42.7 48H6.00625C5.45 48 5 47.55 5 46.9938V44.2062C5 37.175 10.575 31.0375 18.4187 28.9313C15.1437 26.9188 13.0437 23.3188 13.0437 19.3062C13.0437 13.075 18.1125 8 24.35 8C30.5875 8 35.6562 13.075 35.6562 19.3062C35.6562 23.3188 33.5562 26.9188 30.2812 28.9313C38.125 31.0375 43.7 37.175 43.7 44.2062V46.9938C43.7 47.55 43.25 48 42.6937 48H42.7Z" fill="#BBBBBB"/>
</g>
</svg>
