<svg width="28" height="28" viewBox="0 0 28 28" fill="none" xmlns="http://www.w3.org/2000/svg">
<rect x="1" y="1" width="26" height="26" rx="13" fill="#BBBBBB"/>
<rect x="1" y="1" width="26" height="26" rx="13" stroke="white" stroke-width="2"/>
<g clip-path="url(#clip0_171_8481)">
<path d="M20.3875 9.84355C19.6875 9.0998 18.9438 8.35605 18.2 7.63418C18.0469 7.48105 17.8719 7.39355 17.675 7.39355C17.4781 7.39355 17.2813 7.45918 17.15 7.6123L8.90313 15.7936C8.77188 15.9248 8.68438 16.0779 8.61876 16.2311L7.41563 19.9061C7.35001 20.0811 7.39376 20.2561 7.48126 20.3873C7.59063 20.5186 7.74376 20.6061 7.94063 20.6061H8.02813L11.7688 19.3592C11.9438 19.2936 12.0969 19.2061 12.2063 19.0748L20.4094 10.8936C20.5406 10.7623 20.6281 10.5654 20.6281 10.3686C20.6281 10.1717 20.5406 9.99668 20.3875 9.84355ZM11.5063 18.3967C11.4844 18.4186 11.4625 18.4186 11.4406 18.4404L8.61876 19.3811L9.55938 16.5592C9.55938 16.5373 9.58126 16.5154 9.60313 16.4936L15.6188 10.4998L17.5219 12.4029L11.5063 18.3967ZM18.2 11.7029L16.2969 9.7998L17.6313 8.46543C18.2656 9.07793 18.9 9.73418 19.5125 10.3686L18.2 11.7029Z" fill="white"/>
</g>
<defs>
<clipPath id="clip0_171_8481">
<rect width="14" height="14" fill="white" transform="translate(7 7)"/>
</clipPath>
</defs>
</svg>
